<svg xmlns="http://www.w3.org/2000/svg" width="24" height="24" viewBox="0 0 24 24" fill="none" stroke="currentColor" stroke-width="2" stroke-linecap="round" stroke-linejoin="round">
  <path d="M2 12.88V18a2 2 0 0 0 2 2h4.12"/>
  <path d="M22 12.88V18a2 2 0 0 1-2 2h-4.12"/>
  <path d="M2 11.12V6a2 2 0 0 1 2-2h4.12"/>
  <path d="M22 11.12V6a2 2 0 0 0-2-2h-4.12"/>
  <circle cx="9" cy="10" r="1.5" fill="currentColor" stroke="none"/>
  <circle cx="15" cy="10" r="1.5" fill="currentColor" stroke="none"/>
  <path d="M9 15c.5.5 1.5 1 3 1s2.5-.5 3-1"/>
</svg>
